<?xml version="1.0" encoding="UTF-8"?><svg id="b" xmlns="http://www.w3.org/2000/svg" viewBox="0 0 1339.24 400"><g id="c"><path d="M623.96,166.04l-40.08,4.37c-1.13-4.05-3.1-7.85-5.89-11.42-2.79-3.56-6.54-6.44-11.23-8.62-4.7-2.19-10.44-3.28-17.25-3.28-9.15,0-16.82,1.99-23.01,5.95-6.19,3.97-9.25,9.11-9.17,15.42-.08,5.43,1.92,9.84,6.01,13.24,4.09,3.4,10.87,6.19,20.34,8.38l31.82,6.8c17.65,3.81,30.79,9.84,39.41,18.1,8.62,8.26,12.97,19.07,13.06,32.43-.08,11.74-3.5,22.08-10.26,31.03s-16.13,15.93-28.12,20.95c-11.98,5.02-25.75,7.53-41.29,7.53-22.83,0-41.21-4.8-55.14-14.39s-22.22-22.97-24.9-40.14l42.87-4.13c1.94,8.42,6.07,14.78,12.39,19.07,6.32,4.29,14.53,6.44,24.65,6.44s18.84-2.14,25.2-6.44c6.35-4.29,9.53-9.59,9.53-15.91,0-5.34-2.05-9.75-6.13-13.24-4.09-3.48-10.43-6.15-19.01-8.02l-31.82-6.68c-17.9-3.72-31.13-10.02-39.71-18.89s-12.83-20.1-12.75-33.7c-.08-11.5,3.05-21.48,9.41-29.94,6.35-8.46,15.22-15.02,26.6-19.67,11.38-4.66,24.51-6.98,39.41-6.98,21.86,0,39.09,4.66,51.68,13.97,12.59,9.31,20.38,21.9,23.38,37.77h0ZM719.99,306.92c-18.22,0-34.01-4.01-47.37-12.02s-23.7-19.23-31.03-33.64-10.99-31.25-10.99-50.52,3.66-36.15,10.99-50.64c7.33-14.49,17.67-25.75,31.03-33.76s29.15-12.02,47.37-12.02,34.01,4.01,47.37,12.02c13.36,8.01,23.7,19.27,31.03,33.76,7.33,14.49,10.99,31.38,10.99,50.64s-3.66,36.11-10.99,50.52-17.67,25.63-31.03,33.64-29.15,12.02-47.37,12.02ZM720.24,271.7c9.88,0,18.14-2.73,24.78-8.2s11.6-12.81,14.88-22.04c3.28-9.23,4.92-19.51,4.92-30.85s-1.64-21.76-4.92-31.03c-3.28-9.27-8.24-16.66-14.88-22.16s-14.9-8.26-24.78-8.26-18.52,2.75-25.2,8.26-11.66,12.89-14.94,22.16-4.92,19.61-4.92,31.03,1.64,21.62,4.92,30.85c3.28,9.23,8.26,16.58,14.94,22.04,6.68,5.46,15.08,8.2,25.2,8.2ZM864.85,54.55v248.73h-43.96V54.55h43.96ZM906.49,90.25c-6.96,0-12.96-2.35-17.97-7.04-5.02-4.7-7.53-10.32-7.53-16.88s2.51-12.16,7.53-16.82,11.01-6.98,17.97-6.98,13.06,2.35,18.04,7.04c4.98,4.7,7.47,10.32,7.47,16.88s-2.49,12.17-7.47,16.82c-4.98,4.66-10.99,6.98-18.04,6.98ZM884.38,303.27V116.73h43.96v186.55h-43.96ZM1095.31,166.04l-40.08,4.37c-1.13-4.05-3.1-7.85-5.89-11.42-2.79-3.56-6.54-6.44-11.23-8.62-4.7-2.19-10.44-3.28-17.25-3.28-9.15,0-16.82,1.99-23.01,5.95-6.19,3.97-9.25,9.11-9.17,15.42-.08,5.43,1.92,9.84,6.01,13.24,4.09,3.4,10.87,6.19,20.34,8.38l31.82,6.8c17.65,3.81,30.79,9.84,39.41,18.1,8.62,8.26,12.97,19.07,13.06,32.43-.08,11.74-3.5,22.08-10.26,31.03s-16.13,15.93-28.12,20.95c-11.98,5.02-25.75,7.53-41.29,7.53-22.83,0-41.21-4.8-55.14-14.39s-22.22-22.97-24.9-40.14l42.87-4.13c1.94,8.42,6.07,14.78,12.39,19.07,6.32,4.29,14.53,6.44,24.65,6.44s18.84-2.14,25.2-6.44c6.35-4.29,9.53-9.59,9.53-15.91,0-5.34-2.05-9.75-6.13-13.24-4.09-3.48-10.43-6.15-19.01-8.02l-31.82-6.68c-17.9-3.72-31.13-10.02-39.71-18.89s-12.83-20.1-12.75-33.7c-.08-11.5,3.05-21.48,9.41-29.94,6.35-8.46,15.22-15.02,26.6-19.67,11.38-4.66,24.51-6.98,39.41-6.98,21.86,0,39.09,4.66,51.68,13.97,12.59,9.31,20.38,21.9,23.38,37.77h0ZM1163.66,307.04c-11.82,0-22.45-2.12-31.88-6.38-9.43-4.25-16.88-10.54-22.35-18.89-5.46-8.34-8.2-18.62-8.2-30.85,0-10.52,1.94-19.23,5.83-26.11s9.19-12.39,15.91-16.52c6.72-4.13,14.31-7.27,22.77-9.41s17.22-3.7,26.29-4.68c10.93-1.13,19.8-2.17,26.6-3.1,6.8-.93,11.76-2.39,14.88-4.37s4.68-5.08,4.68-9.29v-.73c0-9.15-2.71-16.23-8.14-21.25-5.42-5.02-13.24-7.53-23.44-7.53-10.77,0-19.29,2.35-25.56,7.04-6.28,4.7-10.51,10.24-12.69,16.64l-41.05-5.83c3.24-11.33,8.58-20.83,16.03-28.48,7.45-7.65,16.56-13.4,27.33-17.25,10.77-3.84,22.67-5.77,35.71-5.77,8.99,0,17.93,1.05,26.84,3.16,8.91,2.11,17.04,5.57,24.41,10.38,7.37,4.82,13.3,11.36,17.79,19.61,4.49,8.26,6.74,18.58,6.74,30.97v124.85h-42.26v-25.63h-1.46c-2.67,5.18-6.42,10.02-11.23,14.51-4.82,4.49-10.85,8.1-18.1,10.81s-15.73,4.07-25.44,4.07v.03ZM1175.08,274.73c8.82,0,16.47-1.76,22.95-5.28s11.48-8.2,15-14.03c3.52-5.83,5.28-12.18,5.28-19.07v-21.98c-1.38,1.13-3.7,2.19-6.98,3.16s-6.94,1.82-10.99,2.55-8.06,1.38-12.02,1.94c-3.97.57-7.41,1.05-10.32,1.46-6.56.89-12.43,2.35-17.61,4.37s-9.27,4.84-12.27,8.44-4.49,8.24-4.49,13.91c0,8.1,2.96,14.21,8.87,18.34s13.44,6.19,22.59,6.19h-.01ZM1280.03,112.73h-15.11l19.63-58.18h18.72l19.63,58.18h-15.11l-13.67-43.52h-.45s-13.64,43.52-13.64,43.52ZM1278.01,89.83h31.59v10.68h-31.59v-10.68ZM1339.24,54.55v58.18h-14.06v-58.18h14.06Z" fill="#fff"/><circle cx="200" cy="200" r="200" fill="#2563eb"/><path d="M277.03,205.78c-5.33,54.51-51.55,97.17-107.54,97.17h-74.95v-97.17h182.49ZM305.47,190.37H124.46c7.11-52.73,52.14-93.32,106.65-93.32h74.36v93.32Z" fill="#fff"/></g></svg>